<svg width="73" height="72" viewBox="0 0 73 72" fill="none" xmlns="http://www.w3.org/2000/svg">
<path d="M18.0937 43.3069C18.0937 43.3069 15.9843 45.2587 15.2981 47.2162C14.6118 49.1681 13.4531 53.9212 12.9749 54.3431C12.4968 54.765 10.9162 55.5019 10.3368 55.7662C9.75745 56.0306 8.49182 56.295 8.49182 57.1894C8.49182 58.0837 9.65057 58.0894 11.6587 57.7687C13.6668 57.4481 14.4037 57.3469 14.7749 56.8687C15.1462 56.3906 17.2049 48.8981 17.5199 48.42C17.8349 47.9475 18.4199 46.6256 20.2143 45.2531C22.0087 43.8806 24.0674 42.1931 24.0674 42.1931L20.6868 40.0837L18.0937 43.3069Z" fill="#69B893"/>
<path d="M7.665 25.2788C7.665 25.2788 7.0575 23.8556 5.34188 24.3C3.83438 24.6938 3.01875 26.9663 3.44063 28.0238C3.8625 29.0813 5.04938 29.5538 5.04938 29.5538L7.665 25.2788Z" fill="#151413"/>
<path d="M9.03747 9.01689C8.6156 9.06189 7.92935 11.8406 5.92122 11.4469C4.43622 11.1544 4.7231 9.07314 6.60747 8.04377C8.29497 7.12127 9.3806 7.48689 10.41 7.85814C11.9287 8.40377 13.4475 10.0744 14.1843 12.0263C14.9212 13.9781 15.7987 16.4306 16.1643 19.3106C16.5356 22.2413 16.3218 22.3481 16.3218 22.3481L14.8987 22.455C14.8987 22.455 15.1631 21.7181 14.6343 18.5231C14.3362 16.7175 13.605 14.445 12.9468 12.7688C12.2043 10.8956 10.6743 8.83689 9.03747 9.01689Z" fill="#4F8B6F"/>
<path d="M21.0468 10.9743C20.6587 10.9068 19.6743 12.2681 18.2906 11.4693C17.0643 10.7606 17.6437 8.9381 19.4662 8.7581C20.6306 8.63997 22.0987 9.4781 22.8187 10.2093C23.9268 11.3456 24.7481 13.2187 25.1137 15.12C25.4962 17.0831 25.4512 18.9225 24.6412 21.5887C23.7693 24.4406 22.74 25.6275 22.74 25.6275L21.6318 24.4912C21.6318 24.4912 22.3968 23.4337 23.2181 21.1668C23.8143 19.5131 24.1687 17.685 23.775 15.5418C23.4037 13.5562 22.155 11.16 21.0468 10.9743Z" fill="#4F8B6F"/>
<path d="M9.17249 23.0344C6.28124 24.3844 2.53499 28.7663 3.20436 33.8063C3.73311 37.7663 6.63562 41.8838 12.2325 43.1494C17.8294 44.415 21.2606 42.6206 21.2606 42.6206L24.0562 42.1988L26.4862 45.5794L33.72 45.63L38.4731 43.6781C38.4731 43.6781 41.7862 48.3919 42.8775 50.0513C43.9687 51.7163 47.5912 54.6469 47.5912 54.6469C47.5912 54.6469 48.57 55.3781 49.5769 55.9406C50.5275 56.4694 55.095 58.6856 59.2519 58.8825C66.5194 59.2313 68.7075 57.2063 69.1687 56.6269C69.3937 56.34 69.6356 55.2094 69.7312 54.6075C69.8044 54.135 70.5806 49.6631 69.9956 46.1588C69.5231 43.3069 67.9875 38.2388 62.2331 33.1706C56.4787 28.1025 48.6656 26.8369 43.755 29.6888C39.1256 32.3775 37.5281 36.2869 37.5281 36.2869C37.5281 36.2869 36.0487 32.3719 32.0381 31.8544C28.7644 31.4325 27.3412 33.12 27.3412 33.12C27.3412 33.12 27.6562 25.9931 20.4787 22.77C15.2306 20.4244 10.7531 22.2975 9.17249 23.0344Z" fill="#86EBBC"/>
<path d="M30.0243 33.0638C28.4437 33.4913 27.8081 35.2294 28.3875 36.2869C28.9668 37.3444 30.0637 37.7775 31.29 37.4456C32.8762 37.0238 33.5062 35.6006 33.135 34.5431C32.7693 33.4913 31.3968 32.6981 30.0243 33.0638Z" fill="#CFEEE0"/>
<path d="M43.6425 35.55C44.3793 37.0294 46.5731 37.0688 48.6037 35.8144C50.82 34.4419 50.9268 32.49 50.1337 31.5394C49.0425 30.2288 46.8093 30.4313 45.4368 31.3256C44.0643 32.22 42.6806 33.6206 43.6425 35.55Z" fill="#CFEEE0"/>
<path d="M11.8106 27.9169C10.9725 29.3344 10.7475 31.815 12.8681 32.7488C15.2981 33.8175 16.8 32.0738 17.3568 30.69C17.8856 29.3681 17.97 27.1238 16.0912 26.3588C14.1225 25.56 12.6431 26.5163 11.8106 27.9169Z" fill="#0A0A0A"/>
<path d="M5.36999 34.8863C5.44312 35.6288 5.36999 36.1013 4.94812 36.3881C4.42499 36.7481 4.00874 36.5681 4.00874 36.5681C4.00874 36.5681 3.29437 35.8763 3.12562 34.4869C3.02999 33.7163 3.15374 32.5856 3.15374 32.5856C3.15374 32.5856 5.23499 33.5419 5.36999 34.8863Z" fill="#4F8B6F"/>
<path d="M25.5918 38.5312C25.9462 38.6494 25.3556 42.2156 25.6706 42.7669C25.9856 43.3237 28.3256 44.8256 31.5318 44.4319C34.7381 44.0381 36.1668 42.0356 36.6787 40.9106C37.0049 40.2019 37.3143 39.0487 37.5506 39.0094C37.7868 38.97 39.4518 41.625 40.5993 43.0481C41.7468 44.4712 42.4612 45.6244 44.7562 47.88C47.0512 50.1356 50.0212 51.8794 50.0212 51.8794C50.0212 51.8794 49.4024 52.6613 48.9018 53.28L47.7149 54.7313C47.7149 54.7313 44.1037 51.9975 42.3037 49.6856C40.5487 47.43 38.7037 45.1856 38.4224 45.7088C38.2818 45.9675 39.4856 47.6213 39.9862 48.5381C40.7006 49.8431 41.4712 51.1144 41.7693 51.8063C42.0562 52.4756 43.2824 55.6144 43.8899 57.6675C44.2837 59.0119 44.5368 60.6206 44.6437 60.7163C44.9418 60.975 46.8206 62.8144 47.2987 63.2475C47.7712 63.6806 48.6431 64.6313 48.0131 65.3063C47.3774 65.9813 45.9937 64.9688 45.6787 64.7325C45.3637 64.4963 42.3149 62.4938 41.9549 62.0606C41.6006 61.6275 41.0774 59.1581 40.8468 58.2188C40.5881 57.1669 39.0637 53.5444 38.8274 52.8356C38.5912 52.1213 37.1624 49.6406 36.7687 49.095C36.1556 48.2456 35.6999 47.115 34.7493 47.3906C34.2768 47.5313 33.8606 47.61 33.4612 47.7844C33.3824 48.3019 33.3206 55.2881 33.2024 55.9238C33.0843 56.5594 32.7299 61.7063 32.7693 62.1788C32.8087 62.6513 35.0643 65.6213 35.3456 65.9813C35.6212 66.3356 35.6999 67.05 35.2274 67.4438C34.7549 67.8375 33.4443 67.6013 33.0899 67.3256C32.7356 67.05 30.3956 64.71 30.1987 64.0406C30.0018 63.3656 30.0412 57.1106 30.0412 56.0813C30.0412 55.0519 30.2774 48.1612 30.1199 47.8462C29.8837 47.8069 29.4674 47.8463 28.1231 47.5706C27.3524 47.4131 26.7168 47.0363 26.4806 47.0138C26.3624 47.2331 24.3037 52.1606 23.9043 53.6287C23.5106 55.0912 21.8456 62.4206 21.6487 62.775C21.4518 63.1294 19.8656 64.575 18.1274 65.1488C17.2162 65.4469 14.4431 66.1388 13.8918 65.4244C13.3349 64.71 15.4387 63.2869 16.5468 62.6906C17.6549 62.0944 18.9599 61.3069 19.1231 61.1438C19.2806 60.9863 20.5068 53.8987 20.6699 53.0662C20.8331 52.2337 23.4824 45.9394 23.4431 45.6638C22.2168 44.595 21.1874 42.6938 21.1874 42.6938C21.1874 42.6938 22.7118 42.0975 23.8199 41.0681C24.6918 40.2244 25.5918 38.5312 25.5918 38.5312Z" fill="#4F8B6F"/>
<path d="M51.8156 53.01C51.8156 53.01 51.0562 54.0338 50.5725 54.6356C49.9537 55.4006 49.3969 55.8619 49.3969 55.8619C49.3969 55.8619 52.0744 57.1725 53.6775 57.7463C56.1637 58.6294 57.6881 58.725 57.6881 58.725C57.6881 58.725 58.4475 57.825 58.9256 57.2456C59.5612 56.4806 60.0844 55.6594 60.0844 55.6594C60.0844 55.6594 57.3844 55.3331 55.4887 54.6806C52.9462 53.8144 51.8156 53.01 51.8156 53.01Z" fill="#4F8B6F"/>
<path d="M62.43 55.9912C62.43 55.9912 61.7156 57.0487 61.215 57.7631C60.8212 58.3256 60.2362 58.8994 60.2362 58.8994C60.2362 58.8994 64.0668 59.0175 66.1143 58.365C67.2393 58.005 68.6175 57.3975 69.1181 56.7394C69.4837 56.2669 69.7762 54.2869 69.7762 54.2869C69.7762 54.2869 68.55 55.6312 66.0806 55.8956C64.2412 56.0981 62.43 55.9912 62.43 55.9912Z" fill="#4F8B6F"/>
<path d="M60.09 55.6594C60.09 55.6594 60.3431 55.6931 61.1756 55.8225C62.3175 55.9969 62.4525 55.9688 62.4525 55.9688C62.4525 55.9688 65.0006 51.6713 66.2156 48.0319C67.47 44.2631 67.5993 39.6394 67.5993 39.6394C67.5993 39.6394 66.9243 38.5313 66.66 38.1375C66.3956 37.7438 65.7375 36.8944 65.7375 36.8944C65.7375 36.8944 65.31 43.4025 63.9937 47.4806C62.4243 52.3519 60.09 55.6594 60.09 55.6594Z" fill="#69B893"/>
<path d="M50.0212 51.8738C50.0212 51.8738 53.88 46.3219 55.2075 42.4125C55.8037 40.6575 56.6531 37.125 56.8725 35.6231C57.3169 32.535 57.03 29.8238 57.03 29.8238C57.03 29.8238 57.6094 30.0319 58.3181 30.42C58.7512 30.6563 59.2687 31.0163 59.2687 31.0163C59.2687 31.0163 59.64 33.1594 59.0494 36.3994C58.5937 38.9138 57.9469 41.4113 57.1312 43.7231C55.8825 47.2444 51.8325 53.0269 51.8325 53.0269L50.0212 51.8738Z" fill="#69B893"/>
</svg>
