<svg width="119" height="71" viewBox="0 0 119 71" fill="none" xmlns="http://www.w3.org/2000/svg">
<circle cx="45.3333" cy="42.3331" r="28.3333" fill="white" fill-opacity="0.18"/>
<circle cx="73.6667" cy="42.3331" r="28.3333" fill="white" fill-opacity="0.18"/>
<path d="M13.34 68.98H11.36V58.16L12.6 56.94H10.98L8.32 62.08H6.88L4.32 56.94H2.72L3.96 58.16V68.98H1.98V55.18H5.52L7.58 59.72H7.82L9.92 55.18H13.34V68.98ZM25.6925 67.26L23.9525 69H18.7725L17.0525 67.26V56.92L18.7725 55.18H23.9525L25.6925 56.92V67.26ZM23.7125 67.26V56.92H19.0325V67.26H23.7125ZM38.9828 68.98H35.1628L31.8028 56.94H30.1028L31.3428 58.12V68.98H29.3628V55.16H33.2028L36.5228 67.24H38.2428L37.0028 65.98V55.16H38.9828V68.98ZM51.437 69H49.477V63.82H44.777V69H42.797V56.92L44.537 55.18H51.437V69ZM50.717 56.92H44.777V63.58L46.277 62.08H49.477V58.16L50.717 56.92ZM65.018 68.98H61.198L57.838 56.94H56.138L57.378 58.12V68.98H55.398V55.16H59.238L62.558 67.24H64.278L63.038 65.98V55.16H65.018V68.98ZM77.1322 67.26L75.3922 69H70.4522L68.7322 67.26V56.92L70.4522 55.18H75.3922L77.1322 56.92V58.36L75.1522 60.36V56.92H70.7122V67.26H75.1522V65.8L77.1322 63.82V67.26ZM88.5855 69H86.6255V63.82H81.9255V69H79.9455V56.92L81.6855 55.18H88.5855V69ZM87.8655 56.92H81.9255V63.58L83.4255 62.08H86.6255V58.16L87.8655 56.92ZM101.186 69H99.2064L99.2464 67.6L95.2864 63.62L96.6264 62.08H99.2064V56.92H94.5264V69H92.5464V58.62L94.2864 56.92H92.3064V55.18H99.4464L101.186 56.92V61.84L99.4464 63.58H97.8264V63.84L101.186 67.16V69ZM113.257 67.26L111.517 69H104.617V58.62L106.357 56.92H104.377V55.18H111.517L113.257 56.92V67.26ZM111.277 67.26V56.92H106.597V68.76L108.057 67.26H111.277Z" fill="#86EBBC"/>
<path d="M46.3509 34.2494C46.3509 34.2494 44.8616 35.763 44.3771 37.281C43.8926 38.7946 43.0745 42.4805 42.7369 42.8076C42.3994 43.1348 41.2834 43.7062 40.8744 43.9112C40.4653 44.1162 39.5718 44.3212 39.5718 45.0148C39.5718 45.7083 40.3899 45.7127 41.8076 45.4641C43.2254 45.2154 43.7457 45.1369 44.0078 44.7661C44.2699 44.3954 45.7234 38.5852 45.9458 38.2145C46.1682 37.848 46.5812 36.823 47.8481 35.7587C49.1149 34.6943 50.5685 33.3857 50.5685 33.3857L48.1817 31.75L46.3509 34.2494Z" fill="#69B893"/>
<path d="M38.988 20.2692C38.988 20.2692 38.5591 19.1657 37.3479 19.5103C36.2835 19.8156 35.7077 21.5778 36.0055 22.3979C36.3034 23.2179 37.1414 23.5844 37.1414 23.5844L38.988 20.2692Z" fill="#151413"/>
<path d="M39.957 7.6587C39.6591 7.69359 39.1746 9.84841 37.7569 9.54307C36.7084 9.31625 36.911 7.70232 38.2414 6.90408C39.4328 6.18871 40.1993 6.47224 40.926 6.76013C41.9983 7.18324 43.0705 8.47875 43.5908 9.99236C44.111 11.506 44.7306 13.4078 44.9887 15.6411C45.2508 17.9137 45.0999 17.9966 45.0999 17.9966L44.0952 18.0795C44.0952 18.0795 44.2818 17.508 43.9085 15.0304C43.698 13.6302 43.1817 11.868 42.7171 10.5681C42.1929 9.1156 41.1127 7.51912 39.957 7.6587Z" fill="#4F8B6F"/>
<path d="M48.4358 9.17677C48.1618 9.12443 47.4668 10.18 46.4899 9.56063C45.6241 9.01102 46.0332 7.59774 47.3199 7.45815C48.142 7.36655 49.1785 8.01649 49.6868 8.58354C50.4692 9.46466 51.049 10.9172 51.3071 12.3916C51.5772 13.9139 51.5454 15.3403 50.9735 17.4078C50.358 19.6194 49.6312 20.5397 49.6312 20.5397L48.8489 19.6586C48.8489 19.6586 49.389 18.8386 49.9688 17.0807C50.3898 15.7983 50.6399 14.3806 50.362 12.7187C50.0998 11.1789 49.2182 9.32072 48.4358 9.17677Z" fill="#4F8B6F"/>
<path d="M40.0524 18.5288C38.0111 19.5756 35.3662 22.9736 35.8388 26.882C36.2121 29.9528 38.2613 33.1458 42.2128 34.1272C46.1643 35.1086 48.5868 33.7172 48.5868 33.7172L50.5606 33.39L52.2762 36.0116L57.3834 36.0508L60.7392 34.5372C60.7392 34.5372 63.0783 38.1926 63.8488 39.4794C64.6192 40.7705 67.1768 43.0431 67.1768 43.0431C67.1768 43.0431 67.8678 43.6101 68.5786 44.0463C69.2498 44.4564 72.4745 46.175 75.4094 46.3277C80.5404 46.5981 82.0852 45.0278 82.4109 44.5785C82.5697 44.356 82.7405 43.4793 82.808 43.0126C82.8596 42.6462 83.4077 39.1784 82.9947 36.4609C82.6611 34.2493 81.5769 30.3192 77.5142 26.3891C73.4515 22.4589 67.9353 21.4775 64.4683 23.689C61.1999 25.774 60.072 28.8056 60.072 28.8056C60.072 28.8056 59.0275 25.7697 56.196 25.3683C53.8846 25.0412 52.8799 26.3498 52.8799 26.3498C52.8799 26.3498 53.1023 20.8232 48.0348 18.3238C44.3296 16.5048 41.1684 17.9573 40.0524 18.5288Z" fill="#86EBBC"/>
<path d="M54.7741 26.3062C53.6582 26.6377 53.2094 27.9856 53.6185 28.8056C54.0275 29.6257 54.8019 29.9615 55.6677 29.7042C56.7876 29.377 57.2324 28.2735 56.9703 27.4534C56.7122 26.6377 55.7431 26.0227 54.7741 26.3062Z" fill="#CFEEE0"/>
<path d="M64.3887 28.2343C64.909 29.3815 66.4578 29.4121 67.8915 28.4393C69.4562 27.375 69.5316 25.8614 68.9717 25.1242C68.2012 24.1079 66.6246 24.2649 65.6556 24.9585C64.6866 25.652 63.7096 26.7382 64.3887 28.2343Z" fill="#CFEEE0"/>
<path d="M41.9149 22.3151C41.3232 23.4143 41.1643 25.338 42.6615 26.0621C44.3771 26.8908 45.4375 25.5386 45.8306 24.4656C46.204 23.4405 46.2635 21.7001 44.9371 21.1069C43.5471 20.4875 42.5027 21.229 41.9149 22.3151Z" fill="#0A0A0A"/>
<path d="M37.3677 27.7196C37.4194 28.2954 37.3677 28.6618 37.0699 28.8842C36.7006 29.1634 36.4067 29.0238 36.4067 29.0238C36.4067 29.0238 35.9023 28.4873 35.7832 27.4099C35.7157 26.8123 35.803 25.9355 35.803 25.9355C35.803 25.9355 37.2724 26.6771 37.3677 27.7196Z" fill="#4F8B6F"/>
<path d="M51.6447 30.5461C51.8949 30.6377 51.4779 33.4032 51.7003 33.8307C51.9227 34.2625 53.5748 35.4272 55.8384 35.1219C58.1021 34.8165 59.1108 33.2637 59.4722 32.3913C59.7026 31.8417 59.921 30.9474 60.0878 30.9169C60.2546 30.8864 61.4301 32.9452 62.2403 34.0488C63.0504 35.1524 63.5548 36.0466 65.1751 37.7958C66.7954 39.5449 68.8923 40.8971 68.8923 40.8971C68.8923 40.8971 68.4554 41.5034 68.102 41.9833L67.264 43.1086C67.264 43.1086 64.7144 40.9887 63.4436 39.1959C62.2045 37.4468 60.9019 35.7064 60.7033 36.112C60.6041 36.3127 61.4539 37.5951 61.8074 38.3061C62.3117 39.3181 62.8558 40.3039 63.0663 40.8404C63.2688 41.3595 64.1346 43.7935 64.5635 45.3856C64.8415 46.4281 65.0202 47.6756 65.0957 47.7498C65.3061 47.9504 66.6326 49.3768 66.9701 49.7127C67.3037 50.0486 67.9193 50.7857 67.4745 51.3092C67.0257 51.8326 66.0488 51.0474 65.8264 50.8642C65.604 50.681 63.4515 49.1282 63.1973 48.7923C62.9472 48.4564 62.5778 46.5415 62.415 45.8131C62.2323 44.9974 61.1561 42.1883 60.9893 41.6387C60.8225 41.0847 59.8138 39.1611 59.5358 38.7379C59.1029 38.0793 58.7812 37.2025 58.11 37.4163C57.7765 37.5253 57.4826 37.5864 57.2006 37.7216C57.145 38.1229 57.1013 43.5405 57.0179 44.0334C56.9345 44.5263 56.6843 48.5175 56.7121 48.8839C56.7399 49.2503 58.3324 51.5534 58.531 51.8326C58.7256 52.1074 58.7812 52.6614 58.4476 52.9667C58.114 53.2721 57.1887 53.0889 56.9385 52.8751C56.6883 52.6614 55.0362 50.8468 54.8972 50.3277C54.7582 49.8043 54.786 44.9538 54.786 44.1555C54.786 43.3573 54.9528 38.0138 54.8416 37.7696C54.6748 37.739 54.3809 37.7696 53.4318 37.5558C52.8877 37.4337 52.439 37.1415 52.2722 37.124C52.1888 37.2941 50.7352 41.1152 50.4533 42.2537C50.1753 43.3878 48.9998 49.0715 48.8608 49.3463C48.7218 49.6211 47.6018 50.7421 46.3747 51.187C45.7313 51.4182 43.7735 51.9547 43.3843 51.4008C42.9911 50.8468 44.4764 49.7432 45.2587 49.2808C46.0411 48.8185 46.9625 48.2078 47.0776 48.0813C47.1888 47.9592 48.0546 42.4631 48.1697 41.8175C48.2849 41.1719 50.1554 36.2909 50.1276 36.0771C49.2619 35.2484 48.5351 33.774 48.5351 33.774C48.5351 33.774 49.6113 33.3116 50.3937 32.5134C51.0093 31.8591 51.6447 30.5461 51.6447 30.5461Z" fill="#4F8B6F"/>
<path d="M70.1592 41.7737C70.1592 41.7737 69.6231 42.5676 69.2815 43.0343C68.8447 43.6275 68.4515 43.9852 68.4515 43.9852C68.4515 43.9852 70.3419 45.0015 71.4737 45.4465C73.2291 46.1313 74.3053 46.2055 74.3053 46.2055C74.3053 46.2055 74.8414 45.5075 75.179 45.0583C75.6278 44.465 75.9971 43.8282 75.9971 43.8282C75.9971 43.8282 74.0909 43.5752 72.7525 43.0692C70.9575 42.3974 70.1592 41.7737 70.1592 41.7737Z" fill="#4F8B6F"/>
<path d="M77.6531 44.0856C77.6531 44.0856 77.1487 44.9056 76.7953 45.4596C76.5173 45.8958 76.1042 46.3407 76.1042 46.3407C76.1042 46.3407 78.8087 46.4323 80.2543 45.9264C81.0486 45.6472 82.0216 45.1761 82.375 44.6657C82.6332 44.2993 82.8397 42.7639 82.8397 42.7639C82.8397 42.7639 81.9739 43.8064 80.2305 44.0114C78.9319 44.1685 77.6531 44.0856 77.6531 44.0856Z" fill="#4F8B6F"/>
<path d="M76.0011 43.8282C76.0011 43.8282 76.1798 43.8543 76.7676 43.9547C77.5738 44.0899 77.6691 44.0681 77.6691 44.0681C77.6691 44.0681 79.4681 40.7355 80.3259 37.9133C81.2115 34.9908 81.3029 31.4053 81.3029 31.4053C81.3029 31.4053 80.8263 30.546 80.6396 30.2406C80.453 29.9353 79.9883 29.2766 79.9883 29.2766C79.9883 29.2766 79.6865 34.3234 78.7572 37.4859C77.6492 41.2633 76.0011 43.8282 76.0011 43.8282Z" fill="#69B893"/>
<path d="M68.8923 40.8927C68.8923 40.8927 71.6167 36.5874 72.5539 33.5558C72.9749 32.1949 73.5746 29.4556 73.7294 28.2909C74.0432 25.8962 73.8406 23.7937 73.8406 23.7937C73.8406 23.7937 74.2497 23.9551 74.7501 24.2561C75.0559 24.4393 75.4212 24.7184 75.4212 24.7184C75.4212 24.7184 75.6834 26.3804 75.2664 28.8929C74.9447 30.8427 74.488 32.7794 73.9121 34.5722C73.0305 37.3028 70.1711 41.7869 70.1711 41.7869L68.8923 40.8927Z" fill="#69B893"/>
</svg>
