<svg xmlns="http://www.w3.org/2000/svg" width="30" height="30" viewBox="0 0 48 50" fill="none">
  <path fill-rule="evenodd" clip-rule="evenodd" d="M13.0521 18.7104H4C2.34315 18.7104 1 20.0536 1 21.7104V45.8681C1 47.525 2.34315 48.8681 4 48.8681H44.2083C45.8652 48.8681 47.2083 47.525 47.2083 45.8681V21.7104C47.2083 20.0536 45.8652 18.7104 44.2083 18.7104H35.1563V20.7104H44.2083C44.7606 20.7104 45.2083 21.1582 45.2083 21.7104V45.8681C45.2083 46.4204 44.7606 46.8681 44.2083 46.8681H4C3.44772 46.8681 3 46.4204 3 45.8681V21.7104C3 21.1582 3.44771 20.7104 4 20.7104H13.0521V18.7104Z" fill="#6E46A6"/>
  <path d="M13.0521 18.7104H13.5521V18.2104H13.0521V18.7104ZM35.1563 18.7104V18.2104H34.6563V18.7104H35.1563ZM35.1563 20.7104H34.6563V21.2104H35.1563V20.7104ZM13.0521 20.7104V21.2104H13.5521V20.7104H13.0521ZM4 19.2104H13.0521V18.2104H4V19.2104ZM1.5 21.7104C1.5 20.3297 2.61929 19.2104 4 19.2104V18.2104C2.06701 18.2104 0.5 19.7774 0.5 21.7104H1.5ZM1.5 45.8681V21.7104H0.5V45.8681H1.5ZM4 48.3681C2.61929 48.3681 1.5 47.2488 1.5 45.8681H0.5C0.5 47.8011 2.06701 49.3681 4 49.3681V48.3681ZM44.2083 48.3681H4V49.3681H44.2083V48.3681ZM46.7083 45.8681C46.7083 47.2488 45.589 48.3681 44.2083 48.3681V49.3681C46.1413 49.3681 47.7083 47.8011 47.7083 45.8681H46.7083ZM46.7083 21.7104V45.8681H47.7083V21.7104H46.7083ZM44.2083 19.2104C45.589 19.2104 46.7083 20.3297 46.7083 21.7104H47.7083C47.7083 19.7775 46.1413 18.2104 44.2083 18.2104V19.2104ZM35.1563 19.2104H44.2083V18.2104H35.1563V19.2104ZM34.6563 18.7104V20.7104H35.6563V18.7104H34.6563ZM44.2083 20.2104H35.1563V21.2104H44.2083V20.2104ZM45.7083 21.7104C45.7083 20.882 45.0367 20.2104 44.2083 20.2104V21.2104C44.4844 21.2104 44.7083 21.4343 44.7083 21.7104H45.7083ZM45.7083 45.8681V21.7104H44.7083V45.8681H45.7083ZM44.2083 47.3681C45.0367 47.3681 45.7083 46.6966 45.7083 45.8681H44.7083C44.7083 46.1443 44.4845 46.3681 44.2083 46.3681V47.3681ZM4 47.3681H44.2083V46.3681H4V47.3681ZM2.5 45.8681C2.5 46.6966 3.17157 47.3681 4 47.3681V46.3681C3.72386 46.3681 3.5 46.1443 3.5 45.8681H2.5ZM2.5 21.7104V45.8681H3.5V21.7104H2.5ZM4 20.2104C3.17157 20.2104 2.5 20.882 2.5 21.7104H3.5C3.5 21.4343 3.72386 21.2104 4 21.2104V20.2104ZM13.0521 20.2104H4V21.2104H13.0521V20.2104ZM13.5521 20.7104V18.7104H12.5521V20.7104H13.5521Z" fill="#6E46A6"/>
  <path d="M15.7909 12.9007C15.7826 12.8889 15.7755 12.8785 15.7694 12.8695C15.7346 12.5305 15.8333 12.2343 15.9891 12.0383C16.1533 11.8318 16.3651 11.7468 16.5808 11.7827C16.589 11.7852 16.6237 11.7983 16.6978 11.8513C16.8007 11.9249 16.9496 12.0535 17.1769 12.2782C17.6303 12.7263 18.3337 13.4936 19.5075 14.8015C20.2753 15.6571 20.9843 16.4357 21.5085 17.0012C21.7703 17.2836 21.9877 17.5147 22.1438 17.6762C22.2213 17.7564 22.2871 17.8229 22.3371 17.8709C22.3611 17.894 22.3876 17.9187 22.4127 17.9399C22.4242 17.9496 22.4447 17.9665 22.4699 17.9836C22.482 17.9918 22.5055 18.0071 22.5366 18.0223L22.5378 18.0229C22.5563 18.0319 22.6418 18.0738 22.7588 18.0738C22.968 18.0738 23.0945 17.951 23.139 17.8992C23.1871 17.8434 23.2113 17.7901 23.2205 17.7687C23.2408 17.7215 23.2496 17.6809 23.2524 17.668C23.2596 17.6344 23.2633 17.6025 23.2653 17.5839C23.2699 17.5415 23.2735 17.4881 23.2766 17.4302C23.2829 17.3116 23.2888 17.1416 23.2943 16.9287C23.3054 16.5015 23.3153 15.8861 23.3236 15.1295C23.3403 13.6156 23.3506 11.5288 23.3506 9.23412V1.07007L23.5991 0.759964L23.5991 0.759924C23.7404 0.583542 23.7969 0.544608 23.8248 0.530377C23.8454 0.519861 23.8933 0.5 24.087 0.5C24.2808 0.5 24.3287 0.519861 24.3493 0.530377C24.3772 0.544608 24.4337 0.583543 24.575 0.759925L24.575 0.759963L24.8235 1.07006V9.23412C24.8235 11.5288 24.8341 13.6157 24.8511 15.1296C24.8596 15.8862 24.8697 16.5017 24.881 16.929C24.8866 17.1419 24.8927 17.312 24.8991 17.4308C24.9023 17.4887 24.906 17.5424 24.9107 17.5851C24.9127 17.6037 24.9166 17.6361 24.9241 17.6703C24.927 17.6834 24.9361 17.7246 24.9571 17.7723C24.9667 17.7942 24.9916 17.8476 25.0406 17.9033C25.0868 17.9559 25.2125 18.0738 25.4172 18.0738C25.5328 18.0738 25.6173 18.033 25.6363 18.0239L25.6373 18.0233C25.6687 18.0083 25.6924 17.9929 25.7047 17.9847C25.7302 17.9675 25.751 17.9504 25.7627 17.9407C25.7881 17.9193 25.8147 17.8945 25.8389 17.8714C25.889 17.8233 25.9549 17.7567 26.0324 17.6766C26.1885 17.5152 26.4056 17.2843 26.6669 17.0023C27.1901 16.4374 27.8976 15.6597 28.6634 14.8051L28.291 14.4714L28.6634 14.8051C29.7302 13.6145 30.4397 12.8434 30.9175 12.3633C31.1571 12.1224 31.3283 11.9652 31.4506 11.8674C31.5296 11.8041 31.5709 11.7802 31.5826 11.7733C31.7712 11.743 31.9987 11.8243 32.1896 12.0384C32.3824 12.2546 32.4803 12.5483 32.4345 12.8227C32.4317 12.829 32.4262 12.8411 32.4162 12.8598C32.3919 12.9054 32.3511 12.9718 32.2867 13.0646C32.1579 13.2503 31.9557 13.5112 31.6553 13.8748C31.0559 14.6005 30.0941 15.7003 28.6161 17.3595C27.5584 18.5469 26.5557 19.655 25.7927 20.4834C25.4109 20.8978 25.0905 21.2408 24.8538 21.4881C24.7352 21.6121 24.6396 21.7099 24.5687 21.78C24.5227 21.8255 24.4957 21.8506 24.4832 21.8621C24.4738 21.8709 24.4727 21.8719 24.4779 21.8682C24.3071 21.9878 24.1916 22.0213 24.1079 22.0256C24.0266 22.0298 23.9171 22.0095 23.7515 21.913C23.7529 21.9138 23.7537 21.9142 23.7537 21.9141C23.7542 21.9134 23.724 21.8905 23.6497 21.8207C23.5703 21.7463 23.4652 21.6423 23.3364 21.5105C23.0794 21.2476 22.7402 20.8868 22.3457 20.4585C21.5574 19.6027 20.5576 18.4874 19.5728 17.3694C18.5879 16.2513 17.6202 15.1332 16.8959 14.272C16.5333 13.8408 16.2344 13.4772 16.0254 13.2113C15.9204 13.0776 15.8421 12.9737 15.7909 12.9007ZM16.5808 11.7827C16.5795 11.7825 16.5789 11.7823 16.5789 11.7823L16.5808 11.7827Z" fill="#6E46A6" stroke="#6E46A6"/>
</svg>