<svg xmlns="http://www.w3.org/2000/svg" width="30" height="30" viewBox="0 0 50 50" fill="none">
  <path d="M23.7031 28.6357C24.2311 28.1071 25.1405 28.1071 25.6686 28.6357L33.198 36.1741C34.5866 37.5642 36.4347 38.3279 38.3904 38.3279H39.867L30.3721 47.834C27.4092 50.722 22.5981 50.722 19.6352 47.834L10.1012 38.2985H11.0106C12.9663 38.2985 14.8144 37.5349 16.203 36.1447L23.7031 28.6357ZM25.6686 21.4303C25.0428 21.9687 24.2409 21.9785 23.7031 21.4303L16.203 13.9213C14.8144 12.4431 12.9663 11.7675 11.0106 11.7675H10.1012L19.6255 2.22816C22.5981 -0.742719 27.4092 -0.742719 30.3721 2.22816L39.8768 11.7382H38.3904C36.4347 11.7382 34.5866 12.5018 33.198 13.892L25.6686 21.4303ZM11.0106 13.9703C12.36 13.9703 13.6019 14.5185 14.6384 15.478L22.1385 22.9869C22.8426 23.6037 23.7618 24.0442 24.6907 24.0442C25.6099 24.0442 26.5291 23.6037 27.2331 22.9869L34.7626 15.4486C35.7209 14.499 37.041 13.9507 38.3904 13.9507H42.0769L47.7778 19.6583C50.7407 22.6247 50.7407 27.4414 47.7778 30.4077L42.0769 36.1153H38.3904C37.041 36.1153 35.7209 35.5671 34.7626 34.6077L27.2331 27.0693C25.8739 25.7085 23.4977 25.7085 22.1385 27.0791L14.6384 34.5783C13.6019 35.5377 12.36 36.0859 11.0106 36.0859H7.89904L2.22554 30.4077C-0.741848 27.4414 -0.741848 22.6247 2.22554 19.6583L7.89904 13.9703H11.0106Z" fill="#6E46A6"/>
</svg>