<svg xmlns="http://www.w3.org/2000/svg" width="30" height="30" viewBox="0 0 53 50" fill="none">
  <path fill-rule="evenodd" clip-rule="evenodd" d="M39.0168 31.2896L49.3558 31.2896C51.0127 31.2896 52.3558 29.9464 52.3558 28.2896V4.13186C52.3558 2.47501 51.0127 1.13186 49.3558 1.13186L3.99999 1.13186C2.34314 1.13186 0.999989 2.47501 0.999989 4.13186V28.2896C0.999989 29.9464 2.34313 31.2896 3.99999 31.2896H14.3388V29.2896H3.99999C3.4477 29.2896 2.99999 28.8418 2.99999 28.2896V4.13186C2.99999 3.57958 3.4477 3.13186 3.99999 3.13186L49.3558 3.13186C49.9081 3.13186 50.3558 3.57958 50.3558 4.13186V28.2896C50.3558 28.8418 49.9081 29.2896 49.3558 29.2896L39.0168 29.2896V31.2896Z" fill="#6E46A6"/>
  <path d="M39.0168 31.2896H38.5168V31.7896H39.0168V31.2896ZM14.3388 31.2896V31.7896H14.8388V31.2896H14.3388ZM14.3388 29.2896H14.8388V28.7896H14.3388V29.2896ZM39.0168 29.2896V28.7896H38.5168V29.2896H39.0168ZM49.3558 30.7896L39.0168 30.7896V31.7896L49.3558 31.7896V30.7896ZM51.8558 28.2896C51.8558 29.6703 50.7365 30.7896 49.3558 30.7896V31.7896C51.2888 31.7896 52.8558 30.2226 52.8558 28.2896H51.8558ZM51.8558 4.13186V28.2896H52.8558V4.13186H51.8558ZM49.3558 1.63186C50.7365 1.63186 51.8558 2.75115 51.8558 4.13186H52.8558C52.8558 2.19887 51.2888 0.631865 49.3558 0.631865V1.63186ZM3.99999 1.63186L49.3558 1.63186V0.631865L3.99999 0.631865V1.63186ZM1.49999 4.13186C1.49999 2.75115 2.61928 1.63186 3.99999 1.63186V0.631865C2.06699 0.631865 0.499989 2.19886 0.499989 4.13186H1.49999ZM1.49999 28.2896V4.13186H0.499989V28.2896L1.49999 28.2896ZM3.99999 30.7896C2.61927 30.7896 1.49999 29.6703 1.49999 28.2896L0.499989 28.2896C0.499989 30.2225 2.06699 31.7896 3.99999 31.7896V30.7896ZM14.3388 30.7896H3.99999V31.7896H14.3388V30.7896ZM14.8388 31.2896V29.2896H13.8388V31.2896H14.8388ZM3.99999 29.7896H14.3388V28.7896H3.99999V29.7896ZM2.49999 28.2896C2.49999 29.118 3.17156 29.7896 3.99999 29.7896V28.7896C3.72385 28.7896 3.49999 28.5657 3.49999 28.2896H2.49999ZM2.49999 4.13186V28.2896H3.49999V4.13186H2.49999ZM3.99999 2.63186C3.17156 2.63186 2.49999 3.30344 2.49999 4.13186H3.49999C3.49999 3.85572 3.72384 3.63186 3.99999 3.63186V2.63186ZM49.3558 2.63186L3.99999 2.63186V3.63186L49.3558 3.63186V2.63186ZM50.8558 4.13186C50.8558 3.30344 50.1843 2.63186 49.3558 2.63186V3.63186C49.632 3.63186 49.8558 3.85572 49.8558 4.13186H50.8558ZM50.8558 28.2896V4.13186H49.8558V28.2896H50.8558ZM49.3558 29.7896C50.1843 29.7896 50.8558 29.118 50.8558 28.2896H49.8558C49.8558 28.5657 49.632 28.7896 49.3558 28.7896V29.7896ZM39.0168 29.7896L49.3558 29.7896V28.7896L39.0168 28.7896V29.7896ZM38.5168 29.2896V31.2896H39.5168V29.2896H38.5168Z" fill="#6E46A6"/>
  <path d="M22.0035 35.5286L21.65 35.1749C22.5049 34.3204 23.2946 33.5428 23.8787 32.9781C24.1703 32.6961 24.4126 32.4653 24.5866 32.3041C24.673 32.2241 24.7462 32.1579 24.8017 32.1102C24.8285 32.0872 24.8575 32.0631 24.8846 32.0427C24.8972 32.0332 24.9187 32.0175 24.9445 32.0019C24.957 31.9944 24.9802 31.981 25.0103 31.9681L25.011 31.9677C25.0298 31.9597 25.1073 31.9262 25.2119 31.9262C25.3951 31.9262 25.5162 32.0217 25.57 32.0766C25.6233 32.1308 25.6516 32.1845 25.6634 32.2086C25.6883 32.2592 25.6993 32.3035 25.7028 32.3179C25.7119 32.3548 25.7165 32.3895 25.7188 32.4086C25.7243 32.4529 25.7284 32.5079 25.732 32.566C25.7393 32.6856 25.746 32.8565 25.7523 33.0695C25.7649 33.4973 25.7763 34.113 25.7858 34.8697C25.8048 36.384 25.8165 38.4711 25.8165 40.7659V48.9145L26.0892 49.2193L26.0892 49.2194C26.2451 49.3936 26.3131 49.4396 26.3583 49.4603C26.4012 49.4798 26.4747 49.5 26.697 49.5C26.9192 49.5 26.9927 49.4798 27.0356 49.4603C27.0808 49.4396 27.1488 49.3936 27.3047 49.2194L27.3047 49.2193L27.5774 48.9145V40.7659C27.5774 38.4711 27.5889 36.384 27.6075 34.8699C27.6168 34.1132 27.6279 33.4975 27.6403 33.0698C27.6464 32.8568 27.653 32.6861 27.6601 32.5667C27.6636 32.5086 27.6677 32.4539 27.6729 32.4099C27.6752 32.3909 27.6797 32.3567 27.6884 32.3203C27.6918 32.3062 27.7024 32.2625 27.7265 32.2124C27.7378 32.1888 27.7655 32.1351 27.8179 32.0805C27.8704 32.0259 27.9925 31.9262 28.1798 31.9262C28.2857 31.9262 28.3642 31.9605 28.3825 31.9685L28.3835 31.969C28.4134 31.982 28.4364 31.9954 28.4487 32.0029C28.4742 32.0184 28.4953 32.034 28.5078 32.0433C28.5346 32.0636 28.5633 32.0876 28.5901 32.1106C28.6454 32.1582 28.7185 32.2244 28.8049 32.3045C28.9791 32.4658 29.2216 32.6968 29.5138 32.9791C30.0989 33.5445 30.8904 34.323 31.7475 35.1785C33.0577 36.4862 33.8437 37.2542 34.3507 37.7031C34.8833 38.1745 35.024 38.2106 35.0586 38.2159L22.0035 35.5286ZM22.0035 35.5286L21.65 35.1749C20.459 36.3654 19.6665 37.1371 19.1324 37.6178C18.8647 37.8588 18.6722 38.0172 18.5335 38.1166C18.416 38.2008 18.3664 38.2206 18.3641 38.2226C18.1001 38.2679 17.8095 38.1635 17.5887 37.9416C17.3705 37.7225 17.2731 37.4423 17.3175 37.1921C17.3207 37.1857 17.3263 37.1754 17.335 37.1608C17.3618 37.1157 17.4072 37.0495 17.4792 36.9565C17.6232 36.7707 17.8491 36.5095 18.1846 36.1457C18.8541 35.4198 19.9281 34.3197 21.5782 32.6605C22.7592 31.473 23.8787 30.3648 24.7307 29.5363M22.0035 35.5286L24.7307 29.5363M24.7307 29.5363C25.1569 29.1219 25.5148 28.7788 25.7793 28.5312M24.7307 29.5363L25.7793 28.5312M25.7793 28.5312C25.9118 28.4072 26.0188 28.3091 26.0983 28.2388M25.7793 28.5312L26.0983 28.2388M26.0983 28.2388C26.1535 28.1899 26.185 28.1638 26.1988 28.1524M26.0983 28.2388L26.1988 28.1524M26.1988 28.1524C26.2078 28.145 26.2092 28.1438 26.2046 28.1467M26.1988 28.1524L26.2046 28.1467M26.2046 28.1467C26.4013 28.0231 26.5473 27.98 26.668 27.9745C26.7877 27.969 26.931 27.9981 27.1267 28.1011C27.1208 28.098 27.1215 28.0986 27.1304 28.1052C27.1448 28.116 27.181 28.1432 27.2455 28.1974C27.3347 28.2724 27.4525 28.3767 27.5964 28.5086C27.8836 28.7718 28.2626 29.1328 28.7031 29.5612C29.5833 30.4172 30.6997 31.5326 31.7993 32.6507C32.8989 33.7688 33.9794 34.887 34.7881 35.7484C35.193 36.1797 35.5269 36.5434 35.7603 36.8095C35.8777 36.9433 35.9652 37.0473 36.0225 37.1205C36.0302 37.1303 36.037 37.1392 36.0429 37.147C36.1164 37.8228 35.5916 38.2957 35.0587 38.2159L26.2046 28.1467Z" fill="#6E46A6" stroke="#6E46A6"/>
</svg>